<svg width="1152" height="648" viewBox="0 0 1152 648" fill="none" xmlns="http://www.w3.org/2000/svg">
<g id="Frame 3">
<path id="V1" d="M74 44C74 44 80.6682 321.041 304.529 460.485C496.577 580.112 1087 587 1087 587" stroke="white"/>
<path id="V2" d="M221 44C221 44 226.701 195.531 418.077 271.801C582.256 337.233 1087 341 1087 341" stroke="white"/>
<path id="V3" d="M495 44C495 44 515.051 95.8307 540.199 116.036C544.616 119.585 556.511 128.027 593.893 140.048C687.689 170.209 1087 191 1087 191" stroke="white"/>
<path id="V4" d="M827 44C827 44 835.806 64.4502 846.851 72.4223C848.791 73.8227 854.015 77.1535 870.433 81.8964C911.627 93.7968 1087 102 1087 102" stroke="white"/>
<path id="3 Days" d="M74 29.5L221 29.5" stroke="white"/>
<path id="1 Week" d="M227 30L491 30" stroke="white"/>
<path id="1 Month" d="M500 30L819 30" stroke="white"/>
</g>
</svg>
